<svg xmlns="http://www.w3.org/2000/svg" viewBox="0 0 100 100">
  <rect width="100" height="100" rx="22" fill="#f1ede3"/>
  <g transform="translate(0 100) scale(1 -1) rotate(-90 50 50)">
    <path d="M50 90 C 50 94, 49 97, 47 99" fill="none" stroke="#1a7a4a" stroke-width="3.4" stroke-linecap="round"/>
    <path d="M50 6 C 33 28, 30 60, 50 92 C 70 60, 67 28, 50 6 Z" fill="#1a7a4a"/>
    <g fill="none" stroke="#f1ede3" stroke-linecap="round" stroke-linejoin="round" opacity="0.9">
      <path d="M50 90 C 51 62, 51 34, 50 12" stroke-width="2.4"/>
      <g stroke-width="2">
        <path d="M50 74 Q 40 72, 33 63"/>
        <path d="M50 74 Q 60 72, 67 63"/>
        <path d="M50 56 Q 40 54, 33 45"/>
        <path d="M50 56 Q 60 54, 67 45"/>
        <path d="M50 40 Q 42 38, 36 30"/>
        <path d="M50 40 Q 58 38, 64 30"/>
      </g>
    </g>
  </g>
</svg>
